# AST/ASF file generated using VICON BodyLanguage
# -----------------------------------------------
:version 1.10
:name VICON
:units
  mass 1.0
  length 0.45
  angle deg
:documentation
   .ast/.asf automatically generated from VICON data using
   VICON BodyBuilder and BodyLanguage model FoxedUp or BRILLIANT.MOD
:root
   order TX TY TZ RX RY RZ
   axis XYZ
   position 0 0 0  
   orientation 0 0 0 
:bonedata
  begin
     id 1 
     name lhipjoint
     direction 0.623415 -0.642378 0.445763 
     length 2.49859 
     axis 0 0 0  XYZ
  end
  begin
     id 2 
     name lfemur
     direction 0.34202 -0.939693 0  
     length 6.69689  
     axis 0 0 20  XYZ
    dof rx ry rz
    limits (-160.0 20.0)
           (-70.0 70.0)
           (-60.0 70.0)
  end
  begin
     id 3 
     name ltibia
     direction 0.34202 -0.939693 0   
     length 7.37574   
     axis 0 0 20   XYZ
    dof rx
    limits (-10.0 170.0)
  end
  begin
     id 4 
     name lfoot
     direction 0.084323 -0.231675 0.969132   
     length 2.09111   
     axis -90 7.62852e-016 20   XYZ
    dof rx rz
    limits (-45.0 90.0)
           (-70.0 20.0)
  end
  begin
     id 5 
     name ltoes
     direction 1.5357e-011 -4.21957e-011 1   
     length 1.04989   
     axis -90 7.62852e-016 20   XYZ
    dof rx
    limits (-90.0 20.0)
  end
  begin
     id 6 
     name rhipjoint
     direction -0.605402 -0.653903 0.45376   
     length 2.45455  
     axis 0 0 0  XYZ 
  end
  begin
     id 7 
     name rfemur
     direction -0.34202 -0.939693 0   
     length 6.64523   
     axis 0 0 -20   XYZ
    dof rx ry rz
    limits (-160.0 20.0)
           (-70.0 70.0)
           (-70.0 60.0)
  end
  begin
     id 8 
     name rtibia
     direction -0.34202 -0.939693 0   
     length 7.3339   
     axis 0 0 -20   XYZ
    dof rx
    limits (-10.0 170.0)
 end
 begin
     id 9 
     name rfoot
     direction -0.120854 -0.332043 0.93549   
     length 2.23135  
     axis -90 -7.62852e-016 -20   XYZ
    dof rx rz
    limits (-45.0 90.0)
           (-20.0 70.0)
  end
  begin
     id 10 
     name rtoes
     direction -1.53563e-011 -4.21914e-011 1   
     length 1.10614   
     axis -90 -7.62852e-016 -20   XYZ
    dof rx
    limits (-90.0 20.0)
  end
  begin
     id 11 
     name lowerback
     direction 0.0319682 0.998615 -0.0417941   
     length 2.02718   
     axis 0 0 0   XYZ
    dof rx ry rz
    limits (-20.0 45.0)
           (-30.0 30.0)
           (-30.0 30.0)
  end
  begin
     id 12 
     name upperback
     direction 7.63181e-005 0.995808 0.0914691   
     length 1.97539   
     axis 0 0 0   XYZ
    dof rx ry rz
    limits (-20.0 45.0)
           (-30.0 30.0)
           (-30.0 30.0)
  end
  begin
     id 13 
     name thorax
     direction -0.016423 0.993627 0.111514   
     length 2.00349   
     axis 0 0 0   XYZ
    dof rx ry rz
    limits (-20.0 45.0)
           (-30.0 30.0)
           (-30.0 30.0)
  end
  begin
     id 14 
     name lowerneck
     direction -0.174763 0.981668 -0.0760716   
     length 1.71436   
     axis 0 0 0   XYZ
    dof rx ry rz
    limits (-20.0 45.0)
           (-30.0 30.0)
           (-30.0 30.0)
  end
  begin
     id 15 
     name upperneck
     direction 0.345458 0.934587 -0.0848868   
     length 1.72805   
     axis 0 0 0   XYZ
    dof rx ry rz
    limits (-20.0 45.0)
           (-30.0 30.0)
           (-30.0 30.0)
  end
  begin
     id 16
     name head
     direction 0.13001 0.989848 -0.0574291  
     length 1.767  
     axis 0 0 0   XYZ
    dof rx ry rz
    limits (-20.0 45.0)
           (-30.0 30.0)
           (-30.0 30.0)
  end
  begin
     id 17 
     name lclavicle
     direction 0.952951 0.290122 0.0878234  
     length 3.54654  
     axis 0 0 0   XYZ
    dof ry rz
    limits (-20.0 10.0)
           (0.0 20.0)
  end
  begin
     id 18 
     name lhumerus
     direction 1 -4.48957e-011 -4.56525e-028   
     length 5.19807   
     axis 180 -30 -90   XYZ
    dof rx ry rz
    limits (-60.0 90.0)
           (-90.0 90.0)
           (-90.0 90.0)
  end
  begin
     id 19
     name lradius
     direction 1 -4.48979e-011 -2.0317e-027   
     length 3.0937   
     axis 180 -30 -90   XYZ
    dof rx
    limits (-10.0 170.0)
  end
  begin
     id 20
     name lwrist
     direction 1 -4.48953e-011 -3.05809e-027   
     length 1.54685   
     axis 8.48514e-016 90 90   XYZ
    dof ry
    limits (-180.0 0.0)
 end
  begin
     id 21 
     name lhand
     direction 1 -4.48952e-011 -6.11639e-027   
     length 0.672632   
     axis 3.9013e-015 90 90   XYZ
    dof rx rz
    limits (-90.0 90.0)
           (-45.0 45.0)
  end
  begin
     id 22 
     name lfingers
     direction 1 -4.48925e-011 -1.22426e-026   
     length 0.542293   
     axis 7.80276e-015 90 90   XYZ
    dof rx
    limits (0.0 90.0)
  end
  begin
     id 23
     name lthumb
     direction 0.707107 -6.3486e-011 0.707107   
     length 0.778628   
     axis -90 45 5.37419e-014   XYZ
    dof rx rz
    limits (-45.0 45.0)
           (-45.0 45.0)
  end
  begin
     id 24 
     name rclavicle
     direction -0.960732 0.273675 -0.0457849   
     length 3.52079  
     axis 0 0 0   XYZ 
    dof ry rz
    limits (-10.0 20.0)
           (-20.0 0.0)
  end
  begin
     id 25 
     name rhumerus
     direction -1 -4.48976e-011 -1.63613e-027  
     length 5.45222   
     axis 180 30 90   XYZ
    dof rx ry rz
    limits (-90.0 60.0)
           (-90.0 90.0)
           (-90.0 90.0)
  end
  begin
     id 26 
     name rradius
     direction -1 -4.48957e-011 -7.00033e-028   
     length 3.01284   
     axis 180 30 90   XYZ
    dof rx
    limits (-10.0 170.0)
  end
  begin
     id 27 
     name rwrist
     direction -1 -4.48983e-011 -3.05543e-027   
     length 1.50642   
     axis 8.48514e-016 -90 -90   XYZ
    dof ry
    limits (-180.0 0.0)
  end
  begin
     id 28
     name rhand
     direction -1 -4.48984e-011 -6.11072e-027   
     length 0.622296   
     axis 3.9013e-015 -90 -90   XYZ
    dof rx rz
    limits (-90.0 90.0)
           (-45.0 45.0)
  end
  begin
     id 29
     name rfingers
     direction -1 -4.48865e-011 -1.22637e-026   
     length 0.501711   
     axis 7.80276e-015 -90 -90   XYZ
    dof rx
    limits (0.0 90.0)
  end
  begin
     id 30
     name rthumb
     direction -0.707107 -6.34932e-011 0.707107   
     length 0.72036   
     axis -90 -45 -5.37419e-014   XYZ
    dof rx rz
    limits (-45.0 45.0)
           (-45.0 45.0)
  end
:hierarchy
  begin
    root lhipjoint rhipjoint lowerback
    lhipjoint lfemur
    lfemur ltibia
    ltibia lfoot
    lfoot ltoes
    rhipjoint rfemur
    rfemur rtibia
    rtibia rfoot
    rfoot rtoes
    lowerback upperback
    upperback thorax
    thorax lowerneck lclavicle rclavicle
    lowerneck upperneck
    upperneck head
    lclavicle lhumerus
    lhumerus lradius
    lradius lwrist
    lwrist lhand lthumb
    lhand lfingers
    rclavicle rhumerus
    rhumerus rradius
    rradius rwrist
    rwrist rhand rthumb
    rhand rfingers
  end

#!OML:ASF H:\Not Pregnant\Project 1\Capture day 1\Session 1\non-pregnant.ASF
:FULLY-SPECIFIED
:DEGREES
1
root -5.71123 16.3235 34.6119 148.049 -82.345 -133.57
lowerback -15.271 2.45913 4.04961
upperback -5.40884 2.34299 0.346596
thorax 2.96792 1.01465 -1.51623
lowerneck 17.219 -8.52357 -30.6907
upperneck -7.31525 -19.1412 45.1394
head 3.84191 -12.665 24.2161
rclavicle 1.33683e-014 -9.54166e-015
rhumerus -48.8805 27.3317 -105.92
rradius 112.611
rwrist 8.3543
rhand 15.4244 4.44645
rfingers 7.12502
rthumb 40.2509 -20.7034
lclavicle 1.33683e-014 -9.54166e-015
lhumerus -52.6758 -24.3823 104.015
lradius 114.668
lwrist 35.0483
lhand 30.4235 8.66698
lfingers 7.12502
lthumb 54.0873 27.4458
rfemur -8.2256 -14.083 26.5075
rtibia 3.18055e-015
rfoot -10.1399 21.3836
rtoes -9.14008
lfemur -18.985 6.45416 -13.9744
ltibia 17.2984
lfoot -14.1021 -6.43113
ltoes -18.3314
2
root -5.70517 16.3229 34.612 147.187 -82.0361 -132.61
lowerback -15.2643 2.61831 4.42704
upperback -5.40593 2.49417 0.396771
thorax 2.9881 1.08732 -1.64854
lowerneck 17.1815 -8.58388 -30.7717
upperneck -7.3878 -19.2375 45.2003
head 3.90514 -12.7195 24.2496
rclavicle 1.23246e-014 2.8625e-014
rhumerus -48.776 27.2689 -105.781
rradius 112.609
rwrist 8.32495
rhand 15.3172 4.30119
rfingers 7.12502
rthumb 40.1501 -20.8794
lclavicle 1.23246e-014 2.8625e-014
lhumerus -52.5789 -24.4878 104.064
lradius 114.64
lwrist 34.9196
lhand 30.6114 8.67465
lfingers 7.12502
lthumb 54.2558 27.3382
rfemur -8.34257 -13.8709 26.8643
rtibia 4.77083e-015
rfoot -10.1467 21.3803
rtoes -9.31142
lfemur -19.2125 6.42613 -13.6118
ltibia 17.5912
lfoot -14.1792 -6.15074
ltoes -18.4024
3
root -5.70514 16.3237 34.6134 147.285 -82.06 -132.7
lowerback -15.2582 2.58497 4.42378
upperback -5.43171 2.45243 0.353975
thorax 2.95677 1.06501 -1.69993
lowerneck 17.2048 -8.55855 -30.6506
upperneck -7.31375 -19.191 45.1642
head 3.86911 -12.694 24.2037
rclavicle 1.76421e-015 1.78906e-014
rhumerus -48.8402 27.246 -105.997
rradius 112.573
rwrist 8.37509
rhand 15.3933 4.41481
rfingers 7.12502
rthumb 40.2217 -20.744
lclavicle 1.76421e-015 1.78906e-014
lhumerus -52.6048 -24.4112 103.941
lradius 114.644
lwrist 34.7995
lhand 30.7911 8.64663
lfingers 7.12502
lthumb 54.4168 27.1989
rfemur -8.35512 -13.8852 26.8321
rtibia -2.62396e-014
rfoot -10.1 21.3896
rtoes -9.16886
lfemur -19.2523 6.40072 -13.645
ltibia 17.6469
lfoot -14.2106 -6.12911
ltoes -18.4699
4
root -5.70521 16.3238 34.612 147.158 -82.054 -132.584
lowerback -15.2548 2.67894 4.43766
upperback -5.41294 2.57877 0.294577
thorax 2.98587 1.129 -1.74681
lowerneck 17.3195 -8.62988 -30.5383
upperneck -7.43957 -19.28 45.2196
head 3.85022 -12.7589 24.1913
rclavicle 3.00662e-015 4.77083e-015
rhumerus -48.7492 26.9839 -105.869
rradius 112.591
rwrist 8.33194
rhand 15.3584 4.26401
rfingers 7.12502
rthumb 40.1889 -20.9048
lclavicle 3.00662e-015 4.77083e-015
lhumerus -52.6046 -24.6912 104.02
lradius 114.583
lwrist 34.4178
lhand 30.9953 8.47239
lfingers 7.12502
lthumb 54.5995 26.8969
rfemur -8.33846 -13.8888 26.8539
rtibia -1.35174e-014
rfoot -10.1357 21.3839
rtoes -9.25547
lfemur -19.2817 6.36164 -13.6121
ltibia 17.7303
lfoot -14.2366 -6.0866
ltoes -18.3992
5
root -5.70464 16.324 34.6118 147.111 -82.0348 -132.531
lowerback -15.2499 2.73232 4.47396
upperback -5.41227 2.64718 0.240202
thorax 2.99226 1.16286 -1.81197
lowerneck 17.3838 -8.6653 -30.419
upperneck -7.48645 -19.3152 45.2437
head 3.82802 -12.7877 24.1667
rclavicle 1.963e-015 -8.34896e-015
rhumerus -48.7098 26.826 -105.877
rradius 112.586
rwrist 8.32533
rhand 15.3496 4.2079
rfingers 7.12502
rthumb 40.1806 -20.9634
lclavicle 1.963e-015 -8.34896e-015
lhumerus -52.6063 -24.8309 104.002
lradius 114.553
lwrist 34.1571
lhand 31.2138 8.37405
lfingers 7.12502
lthumb 54.7948 26.6601
rfemur -8.34616 -13.875 26.8768
rtibia 2.38542e-015
rfoot -10.1372 21.3844
rtoes -9.27164
lfemur -19.2823 6.34435 -13.5863
ltibia 17.7223
lfoot -14.2238 -6.05389
ltoes -18.4024
6
root -5.70451 16.3242 34.6117 147.147 -82.0433 -132.567
lowerback -15.2471 2.7682 4.47753
upperback -5.40932 2.69731 0.186498
thorax 2.99981 1.18801 -1.86122
lowerneck 17.436 -8.69561 -30.3087
upperneck -7.51914 -19.3439 45.2612
head 3.80879 -12.8108 24.1407
rclavicle 3.79679e-014 1.66979e-014
rhumerus -48.6756 26.6941 -105.888
rradius 112.581
rwrist 8.3122
rhand 15.342 4.15125
rfingers 7.12502
rthumb 40.1735 -21.0222
lclavicle 3.79679e-014 1.66979e-014
lhumerus -52.6065 -24.9477 103.98
lradius 114.524
lwrist 33.8745
lhand 31.4447 8.26532
lfingers 7.12502
lthumb 55.0009 26.4034
rfemur -8.34749 -13.8796 26.8676
rtibia 1.59028e-014
rfoot -10.1327 21.3872
rtoes -9.25827
lfemur -19.2836 6.33901 -13.5961
ltibia 17.7221
lfoot -14.2212 -6.05139
ltoes -18.4066
7
root -5.70436 16.3242 34.6116 147.171 -82.0507 -132.591
lowerback -15.2446 2.79167 4.47701
upperback -5.40385 2.73079 0.149911
thorax 3.00815 1.20503 -1.89317
lowerneck 17.4633 -8.71998 -30.2347
upperneck -7.53501 -19.3694 45.2733
head 3.80223 -12.8289 24.1203
rclavicle 2.01518e-014 1.98785e-015
rhumerus -48.6438 26.6103 -105.887
rradius 112.578
rwrist 8.28788
rhand 15.3309 4.08524
rfingers 7.12502
rthumb 40.1631 -21.0914
lclavicle 2.01518e-014 1.98785e-015
lhumerus -52.5945 -25.0253 103.96
lradius 114.494
lwrist 33.5722
lhand 31.6839 8.14996
lfingers 7.12502
lthumb 55.2141 26.1326
rfemur -8.35022 -13.8839 26.8608
rtibia -7.95139e-015
rfoot -10.128 21.3914
rtoes -9.24167
lfemur -19.2842 6.33888 -13.6049
ltibia 17.7173
lfoot -14.2169 -6.05293
ltoes -18.4315
8
root -5.70419 16.3242 34.6117 147.193 -82.0612 -132.609
lowerback -15.2436 2.7966 4.47277
upperback -5.39922 2.73928 0.130303
thorax 3.01385 1.20959 -1.90975
lowerneck 17.4681 -8.73203 -30.1993
upperneck -7.52506 -19.3852 45.276
head 3.80648 -12.8383 24.1064
rclavicle -1.25483e-014 -9.93923e-015
rhumerus -48.6261 26.5836 -105.891
rradius 112.575
rwrist 8.25783
rhand 15.3225 4.02447
rfingers 7.12502
rthumb 40.1551 -21.1546
lclavicle -1.25483e-014 -9.93923e-015
lhumerus -52.5761 -25.047 103.935
lradius 114.468
lwrist 33.2692
lhand 31.9259 8.03581
lfingers 7.12502
lthumb 55.4296 25.8591
rfemur -8.35644 -13.8914 26.852
rtibia -5.1684e-014
rfoot -10.1178 21.397
rtoes -9.20698
lfemur -19.2865 6.34032 -13.6174
ltibia 17.7093
lfoot -14.2121 -6.05864
ltoes -18.4764
9
root -5.70386 16.3242 34.6118 147.172 -82.0658 -132.583
lowerback -15.242 2.78672 4.46898
upperback -5.39374 2.72689 0.135247
thorax 3.01759 1.20378 -1.90462
lowerneck 17.4463 -8.73437 -30.2131
upperneck -7.49231 -19.396 45.2703
head 3.82586 -12.8409 24.1005
rclavicle -1.69712e-014 -4.33351e-014
rhumerus -48.6169 26.6107 -105.886
rradius 112.572
rwrist 8.21911
rhand 15.3177 3.95817
rfingers 7.12502
rthumb 40.1506 -21.2223
lclavicle -1.69712e-014 -4.33351e-014
lhumerus -52.546 -25.015 103.92
lradius 114.441
lwrist 32.9556
lhand 32.1675 7.92011
lfingers 7.12502
lthumb 55.6443 25.5822
rfemur -8.36455 -13.8966 26.8533
rtibia -1.59028e-014
rfoot -10.1116 21.4004
rtoes -9.18583
lfemur -19.2943 6.33719 -13.6194
ltibia 17.7077
lfoot -14.2074 -6.0591
ltoes -18.51
10
root -5.7035 16.3242 34.612 147.126 -82.0684 -132.53
lowerback -15.24 2.77215 4.47021
upperback -5.38891 2.70711 0.148288
thorax 3.01972 1.19423 -1.8952
lowerneck 17.4163 -8.72974 -30.2448
upperneck -7.45023 -19.3995 45.2599
head 3.84766 -12.8381 24.0984
rclavicle -1.07344e-014 2.38542e-014
rhumerus -48.6145 26.6573 -105.878
rradius 112.571
rwrist 8.18027
rhand 15.3138 3.89899
rfingers 7.12502
rthumb 40.1469 -21.2826
lclavicle -1.07344e-014 2.38542e-014
lhumerus -52.5171 -24.9673 103.911
lradius 114.415
lwrist 32.6306
lhand 32.3986 7.79246
lfingers 7.12502
lthumb 55.8495 25.2983
rfemur -8.37288 -13.9021 26.8589
rtibia -4.77083e-015
rfoot -10.1091 21.4006
rtoes -9.17212
lfemur -19.3059 6.33548 -13.6171
ltibia 17.7113
lfoot -14.2044 -6.06313
ltoes -18.5283
11
root -5.70304 16.3242 34.6121 147.067 -82.0676 -132.464
lowerback -15.2169 2.76767 4.54254
upperback -5.39786 2.69369 0.111643
thorax 3.00174 1.1865 -1.97777
lowerneck 17.3853 -8.71807 -30.2355
upperneck -7.38408 -19.3963 45.2626
head 3.86922 -12.8355 24.1003
rclavicle 1.2424e-015 1.19271e-015
rhumerus -48.6185 26.6623 -105.952
rradius 112.562
rwrist 8.15897
rhand 15.3151 3.8473
rfingers 7.12502
rthumb 40.1482 -21.3339
lclavicle 1.2424e-015 1.19271e-015
lhumerus -52.5171 -24.9519 103.835
lradius 114.401
lwrist 32.321
lhand 32.6292 7.67316
lfingers 7.12502
lthumb 56.0539 25.021
rfemur -8.38151 -13.9055 26.8694
rtibia -3.10104e-014
rfoot -10.1115 21.3968
rtoes -9.18322
lfemur -19.3206 6.33847 -13.6109
ltibia 17.7196
lfoot -14.2038 -6.07142
ltoes -18.5262
12
root -5.70256 16.3243 34.6124 147.016 -82.0684 -132.407
lowerback -15.1945 2.76039 4.60459
upperback -5.40681 2.67775 0.0810372
thorax 2.98319 1.17756 -2.04866
lowerneck 17.3526 -8.70587 -30.2303
upperneck -7.31636 -19.392 45.2617
head 3.89087 -12.8314 24.1004
rclavicle -3.19546e-014 -1.23246e-014
rhumerus -48.6241 26.6701 -106.023
rradius 112.552
rwrist 8.14473
rhand 15.32 3.80316
rfingers 7.12502
rthumb 40.1528 -21.3766
lclavicle -3.19546e-014 -1.23246e-014
lhumerus -52.5194 -24.9321 103.766
lradius 114.386
lwrist 32.0062
lhand 32.8554 7.54297
lfingers 7.12502
lthumb 56.2541 24.7339
rfemur -8.3899 -13.9096 26.8777
rtibia -3.33958e-014
rfoot -10.1178 21.3903
rtoes -9.21577
lfemur -19.3369 6.35083 -13.6089
ltibia 17.7295
lfoot -14.2051 -6.09258
ltoes -18.4942
13
root -5.7021 16.3244 34.6127 146.968 -82.0699 -132.354
lowerback -15.1721 2.75314 4.66129
upperback -5.41582 2.66262 0.0513028
thorax 2.96432 1.16903 -2.11547
lowerneck 17.3249 -8.69574 -30.2199
upperneck -7.2519 -19.3895 45.2593
head 3.91029 -12.8285 24.0972
rclavicle 4.39563e-014 2.10712e-014
rhumerus -48.6308 26.6741 -106.094
rradius 112.541
rwrist 8.14103
rhand 15.3262 3.76431
rfingers 7.12502
rthumb 40.1586 -21.4137
lclavicle 4.39563e-014 2.10712e-014
lhumerus -52.5236 -24.9164 103.699
lradius 114.37
lwrist 31.6843
lhand 33.0824 7.40157
lfingers 7.12502
lthumb 56.4548 24.4329
rfemur -8.39692 -13.9142 26.8842
rtibia 4.45278e-014
rfoot -10.1238 21.3846
rtoes -9.25111
lfemur -19.3523 6.36466 -13.6091
ltibia 17.7394
lfoot -14.2088 -6.11292
ltoes -18.4692
